<?xml version="1.0" standalone="no"?>
<!DOCTYPE svg PUBLIC "-//W3C//DTD SVG 20010904//EN"
 "http://www.w3.org/TR/2001/REC-SVG-20010904/DTD/svg10.dtd">
<svg version="1.0" xmlns="http://www.w3.org/2000/svg"
 width="656.000000pt" height="640.000000pt" viewBox="0 0 656.000000 640.000000"
 preserveAspectRatio="xMidYMid meet">

<g transform="translate(0.000000,640.000000) scale(0.100000,-0.100000)"
fill="#6ec9a5" stroke="none">
<path d="M838 6043 c7 -3 16 -2 19 1 4 3 -2 6 -13 5 -11 0 -14 -3 -6 -6z"/>
<path d="M5354 5952 c55 -56 102 -99 105 -97 2 3 -27 35 -65 72 -119 116 -144
131 -40 25z"/>
<path d="M786 6031 c-4 -5 3 -7 14 -4 23 6 26 13 6 13 -8 0 -17 -4 -20 -9z"/>
<path d="M704 5994 c-18 -14 -18 -14 6 -3 31 14 36 19 24 19 -6 0 -19 -7 -30
-16z"/>
<path d="M555 5878 l-50 -53 53 50 c48 46 57 55 49 55 -1 0 -25 -24 -52 -52z"/>
<path d="M3009 5910 l-2135 -5 -76 -37 c-94 -47 -182 -137 -230 -235 l-33 -68
0 -2455 0 -2455 33 -68 c49 -98 127 -179 220 -224 l76 -38 1672 -3 1672 -2 68
-72 c65 -70 67 -73 43 -79 -20 -5 -16 -7 21 -12 25 -3 86 -11 135 -18 99 -13
98 -13 170 -1 44 7 47 9 25 16 -26 9 -80 62 -389 384 -102 106 -194 195 -205
197 -12 2 -47 9 -79 16 -62 11 -97 36 -97 68 0 32 48 80 86 87 29 5 260 -28
300 -43 7 -2 18 -18 25 -35 32 -78 96 -115 144 -84 47 31 50 13 -59 406 -230
827 -231 829 -212 873 18 44 66 71 110 63 58 -11 81 -48 125 -201 37 -131 57
-203 162 -605 51 -190 60 -210 99 -210 20 0 35 8 44 23 14 20 10 42 -41 251
-47 189 -54 229 -42 237 35 22 127 1 162 -37 13 -14 29 -49 36 -77 46 -206 77
-321 89 -333 20 -20 56 -17 77 6 17 19 17 25 -23 193 -23 96 -42 181 -42 190
0 14 10 17 55 17 110 0 126 -23 171 -240 31 -148 36 -160 72 -160 60 0 64 30
27 208 -14 66 -25 126 -25 133 0 8 16 10 52 7 78 -8 99 -36 127 -177 12 -61
29 -133 36 -159 12 -38 15 -134 15 -489 l0 -441 -27 -32 c-14 -18 -36 -36 -47
-41 -15 -7 -9 -8 25 -5 25 3 95 8 155 13 60 4 101 9 91 11 -15 3 -17 13 -15
75 l3 72 62 6 c162 15 322 166 362 340 7 29 11 784 11 2202 l0 2158 -72 73
c-337 336 -842 821 -856 821 -9 0 -978 -2 -2153 -5z m1945 -211 c4 -4 9 -29
13 -58 l6 -51 -129 -2 c-71 -2 -163 -2 -204 0 -53 2 -71 -1 -60 -8 8 -5 34
-10 58 -10 49 0 52 -7 16 -41 -26 -24 -90 -137 -86 -151 1 -5 -431 -8 -960 -8
-881 0 -963 -1 -980 -17 -22 -20 -24 -59 -2 -67 9 -3 436 -6 949 -6 l934 0 3
-119 c2 -65 2 -126 0 -135 -3 -14 -162 -16 -1860 -18 -1021 -2 -1874 -1 -1895
1 l-38 3 3 252 3 251 29 52 c37 66 109 118 191 136 31 7 4003 3 4009 -4z m346
-336 c0 -180 1 -193 19 -203 12 -6 98 -10 209 -10 l190 0 74 -71 73 -70 -145
5 c-80 3 -241 6 -357 6 l-213 0 0 342 0 342 75 -74 75 -74 0 -193z m215 -22
l69 -71 -87 0 -87 0 0 80 c0 97 0 97 105 -9z m-541 -568 c10 -71 60 -167 106
-203 77 -61 121 -73 281 -78 l146 -4 5 -152 c3 -83 3 -335 1 -561 -2 -225 -1
-429 2 -452 5 -35 11 -44 31 -49 56 -14 54 -38 54 670 0 494 -3 655 -12 664
-8 8 -53 12 -138 12 -141 0 -186 9 -230 47 -36 30 -55 64 -64 116 l-7 37 193
-1 c106 -1 180 -4 163 -8 -30 -7 -30 -7 -7 -19 12 -7 22 -10 22 -6 0 4 9 -3
19 -15 11 -12 23 -23 28 -24 4 -1 7 -8 5 -15 -2 -8 4 -12 15 -10 10 2 17 -2
16 -8 -1 -7 6 -10 16 -7 11 3 21 -2 25 -12 3 -9 2 -13 -4 -10 -6 3 -10 1 -10
-4 0 -6 9 -11 21 -11 16 0 19 -4 14 -22 -5 -20 -4 -21 5 -5 16 24 33 22 20 -3
-9 -18 -8 -20 15 -20 14 0 25 -4 25 -10 0 -5 -4 -10 -9 -10 -4 0 -6 -12 -3
-26 3 -19 9 -24 23 -21 15 4 16 2 6 -14 -6 -10 -16 -19 -21 -19 -4 0 -3 -7 4
-15 7 -9 19 -14 27 -11 7 3 13 1 13 -4 0 -6 -9 -10 -20 -10 -11 0 -20 -5 -20
-11 0 -6 9 -8 20 -4 18 6 19 4 11 -19 -6 -14 -6 -26 -1 -28 5 -2 6 -18 1 -39
-9 -40 3 -74 22 -62 7 3 3 -3 -7 -15 -11 -12 -14 -22 -8 -22 7 0 12 -5 12 -11
0 -5 -5 -7 -11 -3 -12 7 -9 -42 7 -125 5 -24 3 -32 -5 -27 -6 4 -11 2 -11 -3
0 -6 8 -11 18 -12 13 0 14 -2 2 -6 -28 -11 -28 -26 -1 -50 14 -14 21 -22 15
-19 -6 3 -16 -6 -22 -19 -9 -20 -9 -23 3 -18 8 3 15 0 15 -6 0 -6 -5 -11 -11
-11 -5 0 -7 -5 -4 -10 3 -6 2 -10 -4 -10 -7 0 -7 -8 -2 -22 5 -13 14 -22 20
-21 15 4 13 -8 -4 -31 -10 -13 -11 -24 -4 -37 6 -13 6 -25 0 -38 -8 -15 -7
-20 5 -25 8 -3 12 -11 9 -17 -4 -6 -13 -8 -20 -6 -12 5 -12 -39 0 -71 2 -7 -1
-24 -7 -38 -9 -20 -9 -27 2 -34 7 -4 15 -28 16 -52 2 -34 1 -38 -6 -18 -10 30
-11 27 -14 -23 -2 -21 2 -41 7 -44 6 -4 8 0 4 11 -4 10 -3 15 3 11 6 -3 10
-15 10 -26 0 -11 -5 -17 -10 -14 -6 4 -5 -4 1 -19 10 -20 9 -30 -4 -50 -9 -13
-12 -26 -7 -28 5 -2 11 -28 14 -58 3 -30 3 -46 0 -35 -10 35 -19 35 -19 0 0
-21 7 -39 17 -46 16 -12 16 -14 -2 -29 -15 -13 -18 -25 -13 -53 3 -20 9 -34
14 -31 5 3 9 1 9 -5 0 -5 -6 -12 -12 -14 -10 -4 -9 -8 2 -16 13 -9 13 -11 -2
-11 -10 0 -18 -4 -18 -10 0 -5 8 -6 18 -3 9 4 4 -5 -13 -20 -16 -14 -25 -27
-18 -27 6 0 15 5 18 10 9 15 22 12 22 -5 0 -8 -7 -15 -16 -15 -14 0 -14 -2 -1
-10 12 -8 12 -10 -5 -10 -19 0 -19 -1 3 -18 25 -19 22 -45 -7 -70 -14 -12 -13
-13 7 -9 18 4 22 1 22 -20 0 -17 -4 -23 -14 -20 -10 4 -12 -9 -10 -64 2 -47
-1 -69 -9 -70 -7 0 -3 -4 8 -9 11 -5 14 -9 8 -9 -7 -1 -13 -8 -13 -16 0 -8 -6
-15 -12 -15 -7 0 -5 -5 6 -11 15 -9 16 -13 5 -20 -11 -6 -11 -11 -1 -21 16
-16 15 -23 -4 -42 -13 -14 -13 -16 -1 -16 9 0 18 6 20 13 3 7 6 5 6 -5 1 -10
-3 -18 -9 -18 -5 0 -10 -5 -10 -11 0 -6 7 -9 15 -5 8 3 15 1 15 -4 0 -6 -6
-10 -14 -10 -8 0 -16 -7 -20 -15 -3 -9 0 -15 9 -15 8 0 15 -7 15 -15 0 -8 -4
-15 -10 -15 -18 0 -11 -20 8 -21 13 0 12 -2 -5 -9 -31 -12 -31 -40 0 -34 12 2
16 2 10 -2 -7 -3 -13 -15 -13 -27 0 -18 -2 -19 -10 -7 -5 8 -10 10 -10 4 0 -5
6 -19 14 -29 14 -19 11 -55 -5 -55 -5 0 -9 -5 -9 -11 0 -6 9 -8 23 -4 20 6 21
5 5 -8 -21 -16 -24 -53 -5 -61 6 -4 3 -5 -9 -2 -17 3 -20 -1 -16 -20 2 -13 8
-24 13 -24 5 0 6 -7 3 -15 -4 -8 -10 -13 -14 -10 -5 3 -6 -5 -3 -17 4 -19 3
-20 -6 -8 -6 8 -11 10 -11 4 0 -5 5 -15 11 -21 9 -9 8 -18 -5 -37 -9 -15 -12
-26 -6 -26 5 0 10 5 10 10 0 6 5 10 11 10 5 0 8 -4 5 -9 -4 -5 -3 -17 0 -26 6
-13 9 -14 16 -3 8 10 9 10 6 -1 -6 -21 -28 -26 -28 -7 0 9 -4 16 -9 16 -5 0
-9 -15 -8 -34 1 -24 5 -32 14 -29 9 4 11 0 6 -13 -5 -14 -3 -16 11 -11 11 4
15 3 11 -4 -4 -6 -13 -8 -19 -6 -7 3 -19 1 -27 -4 -11 -7 -11 -9 4 -9 9 0 17
-4 17 -10 0 -5 0 -13 1 -17 0 -5 -10 -11 -23 -15 -16 -4 -18 -6 -5 -7 18 -1
25 -31 7 -31 -18 0 -11 -20 8 -21 16 -1 16 -2 0 -6 -10 -2 -18 -11 -18 -18 0
-7 -6 -16 -12 -19 -7 -3 0 -3 16 1 26 5 27 4 16 -16 -6 -12 -17 -24 -25 -27
-10 -4 -11 -13 -3 -40 7 -25 6 -39 -2 -50 -7 -7 -9 -21 -6 -31 4 -9 1 -20 -6
-25 -9 -5 -9 -8 -1 -8 8 0 6 -15 -5 -50 -9 -27 -19 -50 -24 -50 -4 0 -8 -9 -8
-20 0 -11 -6 -20 -14 -20 -8 0 -13 -11 -13 -26 0 -15 -6 -30 -14 -34 -10 -7
-10 -14 -1 -35 16 -35 15 -44 -3 -21 -13 17 -15 91 -15 483 l0 463 -25 12
c-21 10 -29 9 -43 -6 -15 -14 -17 -40 -17 -184 0 -92 -1 -238 -3 -324 l-2
-157 -25 25 c-54 54 -168 85 -239 66 -33 -10 -42 -8 -67 10 -15 12 -26 25 -23
29 3 5 -1 6 -9 3 -21 -8 -27 29 -9 52 14 18 14 18 9 -3 -3 -13 -1 -23 4 -23 5
0 9 4 9 9 0 5 10 7 23 5 l22 -5 -22 10 c-22 10 -31 45 -15 55 5 3 8 -4 8 -14
-1 -11 4 -19 9 -19 6 0 10 14 9 32 0 38 12 49 37 34 12 -8 27 -8 46 -1 23 8
28 15 28 44 0 29 -5 36 -29 45 -24 8 -31 6 -45 -11 -14 -17 -19 -19 -29 -7
-10 10 -10 13 3 13 8 0 15 4 15 10 0 5 -6 9 -12 7 -8 -1 -12 6 -10 17 2 11 -1
15 -7 11 -6 -3 -11 -1 -11 4 0 6 -7 11 -15 11 -8 0 -15 3 -15 6 0 3 67 76 149
162 209 221 371 408 371 428 0 5 -23 32 -52 61 -44 44 -49 54 -38 68 9 10 11
34 7 74 l-5 59 44 43 c25 25 43 51 42 61 -4 25 -248 296 -394 438 -357 346
-623 545 -929 695 -232 113 -448 179 -703 216 -192 28 -501 23 -687 -10 -693
-126 -1266 -507 -1929 -1284 -55 -64 -56 -53 14 -130 21 -24 25 -38 25 -90 0
-34 4 -70 9 -80 7 -15 -2 -28 -43 -67 -28 -26 -51 -51 -51 -55 0 -20 218 -273
365 -424 418 -426 767 -673 1190 -838 176 -69 303 -102 517 -133 119 -18 178
-21 353 -18 208 3 210 3 213 -18 2 -12 -4 -29 -13 -38 -15 -14 -15 -16 -1 -16
9 0 16 -5 16 -11 0 -6 -7 -8 -16 -5 -8 3 -12 2 -9 -3 3 -6 -3 -14 -12 -20 -10
-6 -13 -11 -8 -11 6 0 19 6 30 13 11 8 30 16 41 19 18 4 21 2 18 -16 -2 -11
-2 -15 2 -8 3 6 18 12 32 11 16 0 21 -3 12 -6 -8 -3 -18 -10 -21 -15 -13 -20
-92 -30 -289 -35 -160 -4 -231 -2 -325 11 -273 38 -550 122 -796 240 -57 28
-103 44 -113 40 -17 -7 -32 -47 -22 -63 18 -28 238 -125 431 -190 268 -90 495
-126 797 -126 113 0 205 -2 203 -4 -3 -2 0 -12 6 -22 7 -15 6 -17 -6 -13 -18
7 -20 -7 -3 -24 15 -15 -9 -45 -29 -38 -8 3 -12 2 -9 -3 8 -12 -11 -18 -61
-17 -41 1 -57 -8 -30 -17 6 -2 0 -3 -15 -1 -16 2 -28 -1 -28 -6 0 -6 5 -10 10
-10 6 0 10 -3 10 -7 0 -5 -11 -8 -25 -8 -20 0 -23 4 -18 24 4 17 2 22 -6 17
-6 -4 -11 -13 -11 -20 0 -13 -50 -29 -59 -20 -2 2 2 12 10 21 13 16 12 17 -3
4 -10 -7 -18 -10 -18 -5 -1 5 -9 -1 -19 -14 -11 -12 -21 -18 -23 -13 -1 5 -10
11 -18 13 -8 2 -18 10 -22 18 -5 11 -7 9 -7 -7 -1 -17 -7 -23 -23 -23 -19 0
-20 2 -8 10 16 11 8 13 -30 10 -14 -1 -29 -8 -33 -16 -4 -8 -13 -14 -18 -14
-6 0 -3 7 5 16 9 8 16 21 16 27 -1 7 -6 5 -13 -4 -18 -24 -55 -33 -74 -17 -14
11 -16 11 -11 -4 4 -10 1 -19 -8 -22 -9 -3 -12 -1 -9 4 9 15 -24 25 -38 11
-13 -13 -31 -15 -22 -2 10 18 -18 24 -31 7 -11 -15 -13 -14 -22 11 -7 18 -11
22 -11 10 -1 -10 -7 -17 -13 -16 -7 1 -26 -1 -41 -6 -18 -5 -33 -3 -40 4 -6 6
-19 11 -28 11 -10 0 -20 6 -22 13 -4 8 -6 7 -6 -3 -1 -11 -13 -16 -41 -16 -22
-1 -40 3 -40 8 0 5 -5 6 -10 3 -6 -4 -8 -11 -5 -16 4 -5 -1 -9 -9 -9 -9 0 -16
-5 -16 -10 0 -6 -7 -6 -19 2 -10 6 -17 19 -14 27 3 12 0 11 -11 -3 -8 -10 -12
-24 -9 -30 4 -6 -1 -5 -10 3 -9 7 -26 11 -37 8 -13 -3 -18 -1 -13 5 4 8 -4 9
-24 5 -20 -4 -38 0 -53 10 -21 15 -22 15 -16 -4 5 -17 2 -20 -23 -20 -17 0
-28 4 -25 8 2 4 0 10 -6 14 -6 3 -10 -4 -11 -17 0 -13 -3 -17 -6 -10 -2 6 -11
12 -19 12 -8 0 -14 6 -14 13 0 9 -2 9 -8 0 -4 -7 -17 -10 -30 -6 -23 6 -31 23
-10 23 6 0 9 2 6 5 -12 12 -38 -8 -33 -25 3 -10 1 -21 -4 -25 -6 -3 -13 6 -17
21 l-7 27 -18 -21 c-10 -13 -20 -18 -23 -13 -8 12 -56 20 -56 10 0 -5 -7 -9
-16 -9 -14 0 -14 3 -4 15 15 18 1 19 -22 1 -10 -7 -15 -16 -11 -19 3 -4 1 -7
-5 -7 -5 0 -12 5 -14 12 -3 7 -11 9 -24 3 -44 -18 -84 -13 -84 12 0 8 -5 11
-10 8 -6 -4 -8 -10 -5 -15 3 -4 -4 -10 -15 -13 -11 -3 -23 -1 -26 4 -3 5 0 9
5 9 6 0 11 4 11 9 0 5 -9 7 -20 4 -11 -3 -17 -9 -14 -14 3 -5 -25 -8 -61 -6
-58 2 -65 4 -61 20 3 11 0 16 -7 14 -7 -3 -11 -9 -10 -15 4 -16 -34 -35 -42
-22 -3 5 -1 10 4 10 6 0 11 4 11 9 0 13 -51 0 -57 -15 -9 -25 -25 -15 -19 11
5 19 3 23 -9 19 -8 -4 -15 -12 -15 -20 0 -7 -6 -11 -14 -8 -8 3 -23 1 -33 -4
-13 -8 -22 -7 -35 4 -9 9 -33 17 -53 18 -21 2 -41 10 -46 17 -5 8 -9 10 -9 4
0 -22 19 -38 40 -32 14 3 20 1 17 -6 -2 -7 -14 -10 -27 -9 -25 4 -53 26 -44
35 3 3 1 8 -5 12 -6 3 -11 -1 -11 -9 0 -21 -19 -20 -43 1 -19 17 -19 17 -13
-3 7 -23 -18 -42 -29 -24 -4 6 -1 10 4 10 6 0 11 10 11 22 0 20 -1 20 -18 5
-26 -24 -39 -21 -45 10 -9 50 -34 107 -40 92 -4 -11 -6 -11 -6 -1 -1 8 8 16
19 19 11 3 17 10 13 16 -4 6 -8 26 -10 44 -3 24 0 33 12 33 8 0 15 4 15 10 0
5 -7 7 -15 4 -13 -5 -15 11 -15 114 0 130 -3 138 -55 144 l-30 3 -2 474 c-2
339 -6 477 -14 487 -15 18 -43 18 -58 1 -7 -10 -12 -158 -13 -488 l-3 -474
-30 -3 c-47 -6 -55 -18 -55 -89 0 -40 -4 -62 -10 -58 -5 3 -10 1 -10 -4 0 -6
4 -11 10 -11 6 0 9 -29 7 -70 -1 -54 2 -73 13 -80 10 -7 11 -10 3 -10 -7 0
-13 -5 -13 -11 0 -6 9 -8 20 -4 11 3 20 3 20 0 0 -13 -42 -60 -58 -67 -13 -5
-11 -7 7 -7 28 -1 19 -16 -14 -24 -15 -4 -13 -5 8 -6 20 -1 27 -6 27 -21 0
-11 -5 -20 -11 -20 -6 0 -8 -9 -4 -20 5 -16 2 -20 -14 -20 -12 0 -21 -4 -21
-10 0 -5 -8 -10 -19 -10 -10 0 -24 -7 -31 -15 -7 -8 -17 -12 -22 -9 -6 4 -5
-2 1 -14 9 -18 7 -21 -19 -31 -29 -10 -31 -8 -50 29 -20 39 -20 61 -20 2085
l0 2045 2119 0 2119 0 6 -47z m816 -387 c0 -3 -4 -8 -10 -11 -5 -3 -10 -1 -10
4 0 6 5 11 10 11 6 0 10 -2 10 -4z m0 -40 c0 -3 -4 -8 -10 -11 -5 -3 -10 -1
-10 4 0 6 5 11 10 11 6 0 10 -2 10 -4z m-7 -123 c-4 -11 -3 -14 5 -9 8 5 10 2
6 -8 -10 -27 -24 -18 -24 15 0 17 4 28 10 24 5 -3 6 -13 3 -22z m-2113 -133
c403 -75 743 -237 1090 -518 69 -55 147 -123 175 -151 49 -50 49 -51 22 -51
-24 0 -87 47 -142 106 -5 6 -48 39 -95 74 -47 35 -101 76 -120 90 -68 52 -280
171 -392 221 -62 27 -131 58 -153 68 -22 10 -56 21 -75 25 l-35 7 35 -18 c19
-10 36 -24 38 -31 2 -10 -2 -10 -17 -3 -11 6 -55 22 -98 35 -357 113 -777 115
-1121 5 -51 -17 -96 -28 -101 -24 -5 3 -11 2 -13 -2 -5 -13 -108 -57 -129 -56
-10 1 -19 -2 -19 -6 0 -11 -43 -29 -57 -24 -25 9 -13 23 15 18 25 -5 26 -5 4
5 -24 10 -74 -10 -197 -78 -158 -88 -218 -129 -208 -145 3 -6 1 -7 -6 -3 -12
8 -44 -12 -145 -92 -52 -41 -65 -57 -55 -64 10 -6 6 -7 -10 -3 -19 6 -23 4
-18 -8 4 -11 2 -14 -7 -11 -8 3 -17 1 -21 -5 -3 -6 -1 -11 5 -11 6 0 -6 -15
-26 -32 -21 -18 -44 -32 -52 -30 -8 2 -11 -1 -8 -6 8 -13 -3 -42 -16 -42 -6 0
-7 7 -4 16 5 14 4 15 -8 5 -8 -6 -12 -20 -9 -30 3 -10 0 -22 -6 -25 -6 -4 -11
0 -11 9 0 14 -2 14 -24 0 -14 -10 -23 -25 -23 -41 0 -28 -41 -77 -56 -67 -6 4
-1 13 11 23 12 10 18 20 15 24 -4 3 -1 6 5 6 7 0 12 5 12 12 0 6 -14 -1 -31
-18 -21 -20 -29 -36 -26 -51 2 -13 1 -23 -4 -23 -4 0 -10 -9 -14 -19 -4 -12
-12 -18 -20 -14 -8 3 -12 9 -9 14 3 5 11 6 17 3 7 -4 9 -4 5 1 -4 4 -2 15 5
24 22 28 -41 -25 -68 -58 -22 -26 -25 -34 -15 -46 14 -17 0 -21 -16 -5 -7 7
-18 1 -35 -17 l-24 -28 26 23 c46 40 46 5 1 -39 -40 -37 -71 -53 -56 -26 6 9
5 9 -7 0 -8 -6 -27 -34 -44 -62 -29 -50 -31 -51 -78 -51 l-48 0 20 28 c36 51
345 375 457 480 449 419 925 660 1444 732 116 16 441 5 570 -20z m390 -190 c0
-5 -7 -7 -15 -4 -8 4 -15 8 -15 10 0 2 7 4 15 4 8 0 15 -4 15 -10z m30 -10 c0
-5 -5 -10 -11 -10 -5 0 -7 5 -4 10 3 6 8 10 11 10 2 0 4 -4 4 -10z m63 -25
c17 5 19 4 7 -4 -13 -9 -13 -11 2 -11 9 0 20 -4 23 -10 4 -7 -3 -7 -20 0 -48
18 -65 31 -65 48 0 13 3 12 16 -6 11 -16 22 -21 37 -17z m-1713 -45 c-8 -6
-21 -8 -28 -5 -7 3 -11 1 -8 -4 7 -10 -42 -33 -55 -25 -15 9 1 26 19 19 9 -3
13 -3 9 2 -4 4 7 15 25 24 21 11 37 14 43 8 6 -7 5 -13 -5 -19z m1055 20 c508
-57 1044 -376 1532 -911 76 -83 139 -158 141 -165 9 -38 -481 -533 -613 -620
-26 -17 -27 -16 -67 26 -57 59 -127 90 -206 90 -35 0 -73 -5 -84 -11 -11 -6
-18 -7 -16 -2 100 207 136 363 125 543 -25 399 -319 759 -712 872 -70 20 -102
23 -255 23 -199 0 -265 -14 -418 -85 -270 -127 -478 -388 -536 -672 -21 -101
-21 -305 0 -406 59 -290 283 -567 549 -679 127 -54 209 -68 395 -68 152 0 186
3 259 23 136 37 271 107 371 190 l35 30 2 -62 c1 -33 9 -81 18 -105 8 -24 15
-45 15 -46 0 -2 -59 -27 -131 -55 -456 -179 -866 -150 -1353 97 -165 84 -366
218 -515 343 -177 149 -550 534 -551 569 0 21 155 194 310 344 319 311 629
513 980 639 254 92 492 124 725 98z m725 0 c0 -5 -2 -10 -4 -10 -3 0 -8 5 -11
10 -3 6 -1 10 4 10 6 0 11 -4 11 -10z m-1885 -70 c3 -6 -1 -7 -9 -4 -18 7 -21
14 -7 14 6 0 13 -4 16 -10z m-60 -41 c-7 -10 -35 -1 -35 11 0 5 9 6 20 3 11
-3 17 -9 15 -14z m-45 -3 c0 -3 -4 -8 -10 -11 -5 -3 -10 -1 -10 4 0 6 5 11 10
11 6 0 10 -2 10 -4z m2191 -13 c13 -17 13 -17 -6 -3 -11 8 -22 16 -24 17 -2 2
0 3 6 3 6 0 17 -8 24 -17z m-2216 -13 c3 -5 2 -10 -4 -10 -5 0 -13 5 -16 10
-3 6 -2 10 4 10 5 0 13 -4 16 -10z m1372 -242 c56 -19 128 -50 159 -69 70 -41
171 -140 222 -217 53 -79 57 -90 27 -98 -22 -5 -23 -8 -9 -21 10 -11 12 -19 5
-26 -5 -5 -8 -24 -5 -41 5 -25 3 -28 -6 -16 -10 13 -11 12 -5 -5 31 -86 39
-293 16 -400 -7 -33 -33 -103 -59 -155 -38 -78 -61 -110 -127 -175 -131 -132
-265 -192 -450 -202 -101 -6 -253 16 -282 39 -7 5 -18 8 -25 6 -7 -3 9 -13 35
-23 30 -11 46 -23 43 -31 -3 -7 0 -15 7 -17 7 -2 9 -8 5 -12 -10 -10 -93 20
-171 63 -268 148 -424 451 -388 757 39 328 254 576 574 661 78 21 110 24 212
21 107 -3 131 -7 222 -39z m-1907 -177 c0 -5 -6 -14 -14 -20 -12 -10 -14 -9
-11 6 2 10 4 19 4 21 2 6 21 1 21 -7z m-175 -178 c-14 -14 -29 -22 -32 -19 -9
9 38 56 50 49 5 -3 -3 -17 -18 -30z m-167 -189 c-16 -25 -32 -43 -34 -41 -7 7
50 95 58 91 4 -3 -7 -25 -24 -50z m4472 -128 c0 -2 -7 -6 -15 -10 -8 -3 -15
-1 -15 4 0 6 7 10 15 10 8 0 15 -2 15 -4z m-4534 -113 c-4 -10 -4 -14 0 -10
10 9 55 -33 48 -45 -3 -5 -2 -8 3 -7 15 4 43 -13 43 -25 0 -7 20 -32 45 -56
24 -24 43 -46 40 -48 -2 -3 13 -20 35 -40 22 -19 37 -39 33 -45 -3 -5 -1 -7 5
-3 22 14 23 -17 1 -41 -22 -23 -22 -25 -3 -15 11 6 26 7 34 2 11 -7 10 -11 -3
-25 -30 -29 -21 -34 11 -7 16 14 18 22 10 30 -7 7 -9 12 -6 12 14 0 127 -124
121 -134 -3 -6 -3 -8 2 -4 11 10 47 -11 40 -23 -4 -5 -2 -8 3 -7 5 2 47 -29
93 -68 329 -279 623 -456 939 -563 448 -153 846 -134 1301 63 11 5 19 1 23
-10 8 -20 16 -15 -74 -51 -174 -71 -299 -103 -485 -127 -151 -20 -255 -20
-396 0 -347 48 -760 215 -1034 419 -167 124 -224 158 -240 145 -8 -7 -12 -17
-8 -24 3 -6 -3 -3 -13 7 -10 10 -19 27 -19 37 0 11 -4 20 -10 21 -5 0 -14 7
-18 15 -4 8 -12 14 -18 14 -5 0 -1 -10 11 -22 33 -36 23 -41 -15 -7 -29 27
-33 35 -24 53 9 19 9 19 -4 4 -18 -22 -31 -23 -23 -2 4 9 2 13 -5 8 -14 -8
-230 206 -222 219 3 6 1 7 -5 3 -11 -7 -89 79 -85 95 2 5 -3 8 -10 6 -6 -1
-11 4 -9 11 1 8 -2 11 -7 7 -11 -6 -58 52 -53 67 1 5 -1 7 -6 4 -14 -8 -162
152 -162 175 0 5 27 9 61 9 54 0 60 -2 55 -17z m294 -313 c0 -5 -4 -10 -10
-10 -5 0 -10 5 -10 10 0 6 5 10 10 10 6 0 10 -4 10 -10z m3453 -85 c-10 -13
-21 -25 -25 -25 -5 0 -8 -6 -8 -13 0 -20 -237 -246 -324 -308 -38 -28 -56 -30
-56 -5 0 8 39 45 88 84 48 38 142 120 210 181 68 61 125 111 128 111 3 0 -3
-11 -13 -25z m-3122 -342 c13 -16 12 -17 -3 -4 -10 7 -18 15 -18 17 0 8 8 3
21 -13z m3276 -105 c-3 -8 -6 -5 -6 6 -1 11 2 17 5 13 3 -3 4 -12 1 -19z
m-3087 -34 c0 -2 -9 0 -20 6 -11 6 -20 13 -20 16 0 2 9 0 20 -6 11 -6 20 -13
20 -16z m3660 -128 c0 -3 -4 -8 -10 -11 -5 -3 -10 -1 -10 4 0 6 5 11 10 11 6
0 10 -2 10 -4z m-2093 -563 c-9 -2 -14 -9 -11 -15 4 -7 2 -8 -4 -4 -20 12 -13
26 11 25 17 -1 18 -2 4 -6z m98 -42 c-6 -5 -25 10 -25 20 0 5 6 4 14 -3 8 -7
12 -15 11 -17z m-2641 3 c10 -26 7 -114 -4 -114 -5 0 -10 10 -11 23 l0 22 -9
-22 c-5 -13 -16 -23 -25 -23 -18 0 -20 16 -2 24 6 4 2 4 -10 2 -22 -4 -23 -1
-23 50 l0 54 39 0 c26 0 41 -5 45 -16z m76 -119 c0 -8 -2 -15 -4 -15 -2 0 -6
7 -10 15 -3 8 -1 15 4 15 6 0 10 -7 10 -15z m-26 -18 c10 -9 13 -17 7 -17 -5
0 -13 5 -16 10 -9 15 -25 12 -25 -4 0 -19 -32 -30 -42 -14 -13 22 -9 33 5 13
9 -12 16 -14 21 -7 3 6 -3 17 -14 25 -19 13 -18 14 14 13 18 -1 41 -9 50 -19z
m-94 3 c0 -5 -5 -10 -11 -10 -5 0 -7 5 -4 10 3 6 8 10 11 10 2 0 4 -4 4 -10z
m-16 -29 c4 -5 -3 -7 -14 -4 -23 6 -26 13 -6 13 8 0 17 -4 20 -9z m115 -30 c0
-10 -2 -11 -6 -3 -2 6 -9 12 -15 12 -6 0 -8 -7 -4 -15 3 -8 1 -15 -4 -15 -11
0 -13 11 -4 34 7 19 34 9 33 -13z m-191 -16 c-6 -14 -14 -25 -18 -25 -4 0 -5
11 -2 25 2 14 10 25 18 25 11 0 11 -5 2 -25z m66 13 c5 -10 7 -10 12 0 3 6 10
12 16 12 7 0 7 -5 -1 -13 -6 -8 -7 -17 -3 -22 4 -4 -3 -3 -15 4 -25 13 -39 31
-24 31 5 0 12 -6 15 -12z m56 -8 c0 -5 -5 -10 -11 -10 -5 0 -7 5 -4 10 3 6 8
10 11 10 2 0 4 -4 4 -10z m-91 -37 c6 -10 11 -14 11 -10 0 5 7 1 16 -8 30 -29
8 -25 -26 5 -19 17 -29 30 -22 30 6 0 16 -8 21 -17z m201 -5 c-1 -21 -2 -21
-11 -5 -6 9 -14 15 -20 12 -5 -4 -9 -1 -9 4 0 6 9 11 20 11 14 0 20 -7 20 -22z
m-75 2 c3 -5 1 -10 -4 -10 -6 0 -11 5 -11 10 0 6 2 10 4 10 3 0 8 -4 11 -10z
m-156 -22 c-2 -13 0 -29 4 -35 9 -15 -2 -17 -21 -4 -10 6 -11 13 -1 34 15 33
21 34 18 5z m56 -29 c11 -16 1 -19 -13 -3 -7 8 -8 14 -3 14 5 0 13 -5 16 -11z
m128 -4 c4 -8 2 -17 -2 -20 -5 -2 -11 4 -14 15 -6 23 8 27 16 5z m37 -5 c0 -5
-4 -10 -10 -10 -5 0 -10 5 -10 10 0 6 5 10 10 10 6 0 10 -4 10 -10z m60 -10
c0 -5 -5 -10 -11 -10 -5 0 -7 5 -4 10 3 6 8 10 11 10 2 0 4 -4 4 -10z m223
-15 c-3 -9 -8 -14 -10 -11 -3 3 -2 9 2 15 9 16 15 13 8 -4z m1221 0 c-4 -8
-10 -15 -15 -15 -4 0 -6 7 -3 15 4 8 10 15 15 15 4 0 6 -7 3 -15z m71 5 c-3
-5 -12 -7 -20 -3 -21 7 -19 13 6 13 11 0 18 -4 14 -10z m522 -12 c-3 -8 -6 -5
-6 6 -1 11 2 17 5 13 3 -3 4 -12 1 -19z m-2373 -4 c3 -8 2 -12 -4 -9 -6 3 -10
10 -10 16 0 14 7 11 14 -7z m51 -2 c-3 -3 -11 0 -18 7 -9 10 -8 11 6 5 10 -3
15 -9 12 -12z"/>
<path d="M1154 5390 c-66 -27 -85 -120 -35 -171 62 -61 181 -18 181 66 0 26
-28 79 -48 91 -27 17 -74 24 -98 14z"/>
<path d="M1694 5390 c-66 -27 -85 -120 -35 -171 66 -66 171 -20 171 75 0 48
-21 79 -68 97 -28 11 -40 11 -68 -1z"/>
<path d="M2224 5384 c-94 -46 -60 -194 44 -194 49 0 97 36 107 79 10 45 -18
99 -59 116 -44 19 -53 18 -92 -1z"/>
<path d="M5423 4803 c9 -2 25 -2 35 0 9 3 1 5 -18 5 -19 0 -27 -2 -17 -5z"/>
<path d="M5495 4760 c3 -5 11 -10 16 -10 6 0 7 5 4 10 -3 6 -11 10 -16 10 -6
0 -7 -4 -4 -10z"/>
<path d="M3070 4566 c-308 -40 -685 -154 -886 -268 -61 -34 -70 -49 -45 -80
l19 -22 108 51 c229 109 522 196 764 229 153 20 451 20 600 0 245 -33 540
-124 772 -236 114 -55 132 -59 148 -31 17 33 1 50 -90 96 -237 119 -450 188
-740 240 -180 33 -483 42 -650 21z"/>
<path d="M945 4483 c-15 -15 -17 -29 -11 -98 3 -44 6 -101 6 -127 l0 -48 40
-6 40 -7 0 -113 c0 -104 2 -114 22 -128 15 -11 26 -12 40 -5 16 9 18 23 18
129 0 118 0 120 23 120 12 0 32 3 45 6 21 6 22 10 22 138 0 89 -4 136 -12 144
-31 31 -68 -2 -68 -63 0 -37 -3 -44 -25 -49 -14 -4 -36 -4 -50 0 -21 5 -24 12
-27 62 -3 49 -6 57 -24 60 -12 2 -29 -5 -39 -15z"/>
<path d="M1805 4401 c-136 -63 -154 -248 -32 -329 52 -35 132 -36 194 -4 52
27 69 51 84 116 14 66 0 123 -44 173 -56 63 -127 79 -202 44z m92 -111 c38
-35 42 -100 8 -114 -11 -4 -14 -2 -9 6 4 7 3 8 -4 4 -29 -17 -52 -14 -72 11
-25 33 -26 67 0 93 25 25 50 25 77 0z"/>
<path d="M4764 4329 c-45 -13 -100 -78 -109 -127 -3 -22 -1 -58 4 -80 14 -49
69 -107 110 -115 20 -4 57 -33 108 -85 78 -79 78 -79 142 -87 62 -7 91 -21 91
-44 0 -6 5 -11 12 -11 6 0 3 -7 -8 -15 -10 -8 -14 -15 -9 -16 26 -5 31 -6 49
-14 10 -4 35 -4 55 1 l36 9 6 85 c7 108 0 129 -56 159 -25 13 -45 27 -45 31 0
4 -11 7 -24 6 -14 0 -22 -6 -19 -13 3 -7 0 -13 -6 -13 -9 0 -9 -5 -1 -20 7
-14 7 -20 0 -20 -5 0 -10 -7 -10 -15 0 -11 -11 -15 -36 -15 -28 0 -46 10 -89
47 -50 45 -52 48 -34 61 28 19 59 86 59 126 0 48 -16 85 -53 124 -45 47 -105
61 -173 41z m84 -105 c58 -40 42 -123 -24 -124 -61 0 -96 78 -54 120 24 24 48
25 78 4z"/>
<path d="M1375 3993 c-35 -9 -87 -55 -102 -92 -19 -46 -12 -124 14 -159 31
-42 79 -65 136 -65 97 -2 159 60 161 158 1 109 -99 185 -209 158z m80 -108
c48 -47 26 -105 -39 -105 -25 0 -66 41 -66 65 0 22 41 65 61 65 11 0 31 -11
44 -25z"/>
<path d="M5761 3824 c0 -11 3 -14 6 -6 3 7 2 16 -1 19 -3 4 -6 -2 -5 -13z"/>
<path d="M5075 3790 c3 -5 8 -10 11 -10 2 0 4 5 4 10 0 6 -5 10 -11 10 -5 0
-7 -4 -4 -10z"/>
<path d="M5232 3648 c-19 -19 -14 -55 10 -72 32 -23 63 -1 63 45 0 30 -3 34
-30 37 -17 2 -36 -3 -43 -10z"/>
<path d="M1312 3628 c-20 -20 -14 -56 12 -73 42 -28 85 14 63 63 -11 24 -54
31 -75 10z"/>
<path d="M1032 3598 c-8 -8 -12 -59 -12 -164 0 -125 3 -155 16 -168 18 -18 32
-20 54 -6 13 8 14 35 12 167 -2 88 -8 164 -14 171 -13 15 -40 16 -56 0z"/>
<path d="M5763 3411 c0 -11 5 -17 9 -15 11 7 10 34 -1 34 -6 0 -9 -9 -8 -19z"/>
<path d="M5761 3334 c0 -11 3 -14 6 -6 3 7 2 16 -1 19 -3 4 -6 -2 -5 -13z"/>
<path d="M5755 3200 c-3 -5 -2 -10 4 -10 5 0 13 5 16 10 3 6 2 10 -4 10 -5 0
-13 -4 -16 -10z"/>
<path d="M5735 2450 c-3 -5 -2 -10 4 -10 5 0 13 5 16 10 3 6 2 10 -4 10 -5 0
-13 -4 -16 -10z"/>
<path d="M5740 2300 c0 -5 5 -10 11 -10 5 0 7 5 4 10 -3 6 -8 10 -11 10 -2 0
-4 -4 -4 -10z"/>
<path d="M1314 1893 c-4 -14 -2 -33 3 -42 15 -24 56 -25 76 -3 15 16 16 24 6
46 -10 20 -19 26 -45 26 -28 0 -35 -4 -40 -27z"/>
<path d="M1412 1760 c-47 -29 -76 -98 -67 -158 8 -56 67 -122 109 -122 29 0
52 -20 158 -140 65 -73 76 -92 82 -134 6 -38 16 -57 50 -90 150 -150 385 16
297 210 -51 112 -184 144 -279 67 l-35 -29 -46 51 c-88 96 -84 86 -55 129 48
71 29 164 -46 213 -44 30 -121 31 -168 3z m132 -103 c19 -26 19 -30 5 -55 -29
-52 -109 -33 -109 26 0 62 66 80 104 29z m354 -347 c39 -42 46 -67 28 -95 -34
-52 -126 -17 -126 48 0 60 60 88 98 47z"/>
<path d="M5671 1484 c0 -11 3 -14 6 -6 3 7 2 16 -1 19 -3 4 -6 -2 -5 -13z"/>
<path d="M3585 1130 c-3 -5 -1 -10 4 -10 6 0 11 5 11 10 0 6 -2 10 -4 10 -3 0
-8 -4 -11 -10z"/>
<path d="M910 905 c0 -8 2 -15 4 -15 2 0 6 7 10 15 3 8 1 15 -4 15 -6 0 -10
-7 -10 -15z"/>
<path d="M1200 881 c0 -5 5 -13 10 -16 6 -3 10 -2 10 4 0 5 -4 13 -10 16 -5 3
-10 2 -10 -4z"/>
<path d="M1240 870 c0 -5 7 -7 15 -4 8 4 15 8 15 10 0 2 -7 4 -15 4 -8 0 -15
-4 -15 -10z"/>
<path d="M3535 840 c3 -5 11 -10 16 -10 6 0 7 5 4 10 -3 6 -11 10 -16 10 -6 0
-7 -4 -4 -10z"/>
<path d="M1235 809 c-4 -6 -5 -13 -2 -16 7 -7 27 6 27 18 0 12 -17 12 -25 -2z"/>
<path d="M895 800 c4 -6 11 -8 16 -5 14 9 11 15 -7 15 -8 0 -12 -5 -9 -10z"/>
<path d="M3017 784 c6 -15 23 -19 23 -5 0 5 -7 11 -14 14 -10 4 -13 1 -9 -9z"/>
<path d="M3330 780 c0 -5 5 -10 10 -10 6 0 10 5 10 10 0 6 -4 10 -10 10 -5 0
-10 -4 -10 -10z"/>
<path d="M1500 768 c0 -5 9 -8 19 -8 11 0 22 3 24 8 3 4 -6 7 -19 7 -13 0 -24
-3 -24 -7z"/>
<path d="M1800 765 c0 -8 2 -15 4 -15 2 0 6 7 10 15 3 8 1 15 -4 15 -6 0 -10
-7 -10 -15z"/>
<path d="M3055 770 c-3 -5 -2 -10 4 -10 5 0 13 5 16 10 3 6 2 10 -4 10 -5 0
-13 -4 -16 -10z"/>
<path d="M1930 750 c0 -5 5 -10 10 -10 6 0 10 5 10 10 0 6 -4 10 -10 10 -5 0
-10 -4 -10 -10z"/>
<path d="M2628 3942 c-27 -8 -48 -19 -48 -23 0 -4 24 2 53 13 82 31 79 38 -5
10z"/>
<path d="M1760 3405 c-7 -8 -8 -15 -2 -15 5 0 15 7 22 15 7 8 8 15 2 15 -5 0
-15 -7 -22 -15z"/>
<path d="M3251 3286 c-49 -18 -106 -70 -130 -119 -16 -33 -21 -62 -21 -124 l0
-80 -49 -7 c-27 -4 -60 -15 -73 -25 l-23 -19 0 -280 c0 -226 3 -284 15 -306
28 -53 44 -56 352 -56 242 0 280 -2 268 -14 -18 -17 -137 -68 -162 -69 -10 -1
-18 -5 -18 -9 0 -5 -17 -6 -38 -2 -37 6 -38 5 -40 -26 -4 -46 -16 -60 -22 -26
-3 16 -11 31 -18 32 -7 1 -8 0 -2 -3 5 -2 9 -14 9 -26 -1 -17 -2 -18 -6 -4 -7
26 -23 20 -23 -9 0 -26 2 -26 46 -21 25 2 42 1 37 -4 -4 -4 -28 -10 -53 -12
-25 -3 -2 -3 50 -2 167 6 294 61 407 177 79 81 94 100 131 174 40 80 64 164
60 214 -3 40 -3 40 -26 24 -18 -12 -21 -19 -11 -30 9 -11 8 -14 -5 -14 -13 0
-16 -5 -11 -21 5 -13 3 -19 -3 -15 -5 3 -17 -5 -25 -18 -12 -18 -13 -26 -4
-35 9 -9 8 -11 -5 -6 -14 6 -18 2 -19 -16 0 -23 -1 -23 -9 -4 -7 17 -9 15 -9
-12 -1 -27 -4 -31 -18 -26 -16 6 -16 5 -4 -10 12 -15 11 -17 -3 -17 -9 0 -16
-4 -16 -10 0 -5 5 -10 11 -10 5 0 7 -5 3 -11 -4 -8 -9 -7 -15 2 -6 10 -12 7
-27 -11 l-20 -25 -1 254 c-2 288 -5 303 -69 320 -20 6 -47 11 -59 11 -21 0
-23 4 -23 63 0 174 -93 279 -246 276 -27 0 -64 -6 -83 -13z m148 -120 c38 -20
51 -55 51 -141 l0 -75 -109 0 -108 0 -7 31 c-10 53 -7 109 9 139 28 55 105 76
164 46z m-14 -412 c20 -8 45 -56 45 -87 0 -13 -9 -36 -21 -51 -20 -25 -20 -30
-8 -91 7 -36 10 -67 7 -71 -3 -3 -37 -2 -75 1 l-70 7 15 64 c13 61 13 65 -7
90 -46 59 -12 144 59 144 21 0 46 -3 55 -6z"/>
<path d="M3929 2781 c7 -5 11 -13 7 -19 -3 -6 -2 -13 3 -16 5 -4 12 -2 15 3
10 15 -5 41 -23 41 -13 0 -13 -2 -2 -9z"/>
<path d="M3932 2723 c-10 -4 -10 -8 -1 -19 16 -20 29 -17 29 6 0 20 -5 23 -28
13z"/>
<path d="M3795 2500 c3 -5 8 -10 11 -10 2 0 4 5 4 10 0 6 -5 10 -11 10 -5 0
-7 -4 -4 -10z"/>
<path d="M3757 2453 c-4 -3 -7 -11 -7 -17 0 -6 5 -5 12 2 6 6 9 14 7 17 -3 3
-9 2 -12 -2z"/>
<path d="M3210 2160 c-23 -7 -23 -8 -3 -9 14 -1 23 -8 25 -23 2 -12 10 -24 18
-26 13 -4 13 -3 2 10 -9 11 -10 18 -2 23 14 9 13 35 -2 34 -7 -1 -24 -5 -38
-9z"/>
<path d="M3198 2083 c6 -2 18 -2 25 0 6 3 1 5 -13 5 -14 0 -19 -2 -12 -5z"/>
<path d="M1255 2579 c-11 -16 -1 -19 13 -3 7 8 8 14 3 14 -5 0 -13 -5 -16 -11z"/>
<path d="M1337 2513 c3 -7 6 -13 8 -13 2 0 5 6 8 13 3 8 -1 14 -8 14 -7 0 -11
-6 -8 -14z"/>
<path d="M1445 2410 c-3 -5 -1 -10 4 -10 6 0 11 5 11 10 0 6 -2 10 -4 10 -3 0
-8 -4 -11 -10z"/>
<path d="M1440 2385 c0 -5 5 -17 10 -25 5 -8 10 -10 10 -5 0 6 -5 17 -10 25
-5 8 -10 11 -10 5z"/>
<path d="M1472 2344 c-7 -8 -8 -14 -3 -14 10 0 25 19 20 25 -2 1 -10 -3 -17
-11z"/>
<path d="M1595 2300 c10 -11 20 -20 23 -20 3 0 -3 9 -13 20 -10 11 -20 20 -23
20 -3 0 3 -9 13 -20z"/>
<path d="M1556 2249 c28 -22 45 -28 62 -24 16 4 21 2 17 -6 -5 -8 -1 -8 15 1
16 9 19 15 11 23 -15 15 -49 19 -68 8 -11 -6 -23 -3 -37 10 -11 11 -24 19 -29
19 -5 0 8 -14 29 -31z m69 -9 c-3 -5 -13 -10 -21 -10 -8 0 -12 5 -9 10 3 6 13
10 21 10 8 0 12 -4 9 -10z m30 0 c3 -5 1 -10 -4 -10 -6 0 -11 5 -11 10 0 6 2
10 4 10 3 0 8 -4 11 -10z"/>
<path d="M1626 2178 c18 -30 29 -35 40 -16 4 7 3 8 -5 4 -7 -4 -20 2 -32 16
l-20 23 17 -27z"/>
<path d="M1824 2003 c2 -10 7 -17 12 -15 13 3 11 25 -3 29 -6 2 -10 -4 -9 -14z"/>
<path d="M5472 5838 c2 -6 20 -23 39 -37 l34 -25 -34 37 c-37 39 -45 45 -39
25z"/>
<path d="M472 5780 c-25 -33 -30 -56 -6 -25 18 24 36 55 31 55 -2 0 -13 -13
-25 -30z"/>
<path d="M5883 5434 c185 -187 337 -346 337 -354 0 -7 3 -11 6 -7 3 3 -1 15
-9 27 -18 26 -387 400 -553 560 -65 63 33 -38 219 -226z"/>
<path d="M420 5689 c-6 -11 -10 -25 -7 -32 2 -6 9 3 15 21 12 36 8 42 -8 11z"/>
<path d="M401 5624 c0 -11 3 -14 6 -6 3 7 2 16 -1 19 -3 4 -6 -2 -5 -13z"/>
<path d="M381 5563 c1 -34 2 -35 9 -13 11 36 11 50 0 50 -5 0 -10 -17 -9 -37z"/>
<path d="M375 3085 l1 -2440 20 -50 c41 -98 55 -127 60 -122 3 3 -3 22 -14 44
-11 21 -28 63 -38 93 -18 53 -19 150 -24 2485 l-5 2430 0 -2440z"/>
<path d="M6232 5030 c0 -19 2 -27 5 -17 2 9 2 25 0 35 -3 9 -5 1 -5 -18z"/>
<path d="M6244 4585 c0 -71 1 -99 3 -62 2 37 2 96 0 130 -2 34 -3 4 -3 -68z"/>
<path d="M6233 695 c0 -22 2 -30 4 -17 2 12 2 30 0 40 -3 9 -5 -1 -4 -23z"/>
<path d="M6218 627 c-3 -19 -2 -25 4 -19 6 6 8 18 6 28 -3 14 -5 12 -10 -9z"/>
<path d="M6201 573 c-1 -6 -4 -20 -7 -30 -5 -17 -5 -17 6 0 6 10 9 23 6 30 -3
9 -5 9 -5 0z"/>
<path d="M478 434 c12 -18 42 -54 68 -80 38 -41 36 -37 -12 21 -67 83 -85 102
-56 59z"/>
<path d="M6147 453 c-4 -3 -7 -11 -7 -17 0 -6 5 -5 12 2 6 6 9 14 7 17 -3 3
-9 2 -12 -2z"/>
<path d="M6036 318 c-27 -27 -45 -48 -39 -48 10 0 99 88 92 92 -2 2 -26 -18
-53 -44z"/>
<path d="M632 274 c10 -10 20 -16 22 -13 3 3 -5 11 -17 18 -21 13 -21 12 -5
-5z"/>
<path d="M5935 239 c-16 -10 -25 -19 -19 -19 7 0 22 9 35 20 30 24 23 24 -16
-1z"/>
<path d="M684 242 c7 -12 95 -54 105 -50 4 2 -18 15 -51 30 -32 15 -57 24 -54
20z"/>
<path d="M5850 200 c-51 -22 -46 -26 11 -8 22 6 39 15 39 20 0 4 -1 8 -2 7 -2
-1 -23 -9 -48 -19z"/>
<path d="M818 183 c7 -3 16 -2 19 1 4 3 -2 6 -13 5 -11 0 -14 -3 -6 -6z"/>
<path d="M875 170 c3 -5 13 -10 21 -10 8 0 12 5 9 10 -3 6 -13 10 -21 10 -8 0
-12 -4 -9 -10z"/>
<path d="M5745 170 c-8 -13 25 -13 45 0 12 8 9 10 -12 10 -15 0 -30 -4 -33
-10z"/>
<path d="M4858 133 c89 -2 235 -2 325 0 89 1 16 3 -163 3 -179 0 -252 -2 -162
-3z"/>
</g>
</svg>
