<?xml version="1.0" encoding="UTF-8" standalone="no" ?>
<!DOCTYPE svg PUBLIC "-//W3C//DTD SVG 1.1//EN" "http://www.w3.org/Graphics/SVG/1.1/DTD/svg11.dtd">
<svg xmlns="http://www.w3.org/2000/svg" xmlns:xlink="http://www.w3.org/1999/xlink" version="1.1" width="1080" height="1080" viewBox="0 0 1080 1080" xml:space="preserve">
<desc>Created with Fabric.js 5.2.4</desc>
<defs>
</defs>
<rect x="0" y="0" width="100%" height="100%" fill="transparent"></rect>
<g transform="matrix(1 0 0 1 540 540)" id="68209b3f-6dc1-426f-b4f7-7cae39820881"  >
<rect style="stroke: none; stroke-width: 1; stroke-dasharray: none; stroke-linecap: butt; stroke-dashoffset: 0; stroke-linejoin: miter; stroke-miterlimit: 4; fill: rgb(255,255,255); fill-rule: nonzero; opacity: 1; visibility: hidden;" vector-effect="non-scaling-stroke"  x="-540" y="-540" rx="0" ry="0" width="1080" height="1080" />
</g>
<g transform="matrix(1 0 0 1 540 540)" id="abe73957-a53e-4608-a8f5-8e4ca9ae0591"  >
</g>
<g transform="matrix(0 0 0 0 0 0)"  >
<g style=""   >
</g>
</g>
<g transform="matrix(NaN NaN NaN NaN 0 0)"  >
<g style=""   >
</g>
</g>
<g transform="matrix(1 0 0 1 540 540)"  >
<g style="" vector-effect="non-scaling-stroke"   >
		<g transform="matrix(0.13 0 0 -0.13 0 0)"  >
<path style="stroke: none; stroke-width: 1; stroke-dasharray: none; stroke-linecap: butt; stroke-dashoffset: 0; stroke-linejoin: miter; stroke-miterlimit: 4; fill: rgb(6,95,70); fill-rule: nonzero; opacity: 1;" vector-effect="non-scaling-stroke"  transform=" translate(-3669.61, -3457.88)" d="M 672 6675 C 496 6637 338 6507 263 6340 C 207 6216 210 6375 210 3462 C 210 448 204 700 283 546 C 358 401 496 290 660 243 C 722 226 843 225 3665 225 C 6450 225 6608 226 6669 243 C 6783 274 6858 318 6946 405 C 7007 465 7036 503 7064 560 C 7135 707 7131 483 7128 3492 L 7125 6205 L 7102 6270 C 7065 6372 7022 6439 6946 6515 C 6863 6597 6762 6654 6663 6675 C 6564 6696 769 6696 672 6675 z M 6678 6397 C 6748 6360 6806 6300 6839 6231 L 6865 6175 L 6865 3455 L 6865 735 L 6837 679 C 6804 610 6738 547 6662 512 L 6605 485 L 3670 485 L 735 485 L 673 514 C 600 547 529 617 497 688 L 475 735 L 475 3455 L 475 6175 L 501 6230 C 545 6324 607 6380 708 6416 C 738 6427 1283 6429 3685 6427 L 6625 6425 L 6678 6397 z" stroke-linecap="round" />
</g>
		<g transform="matrix(0.13 0 0 -0.13 -153.28 -140.9)"  >
<path style="stroke: none; stroke-width: 1; stroke-dasharray: none; stroke-linecap: butt; stroke-dashoffset: 0; stroke-linejoin: miter; stroke-miterlimit: 4; fill: rgb(6,95,70); fill-rule: nonzero; opacity: 1;" vector-effect="non-scaling-stroke"  transform=" translate(-2520.04, -4514.64)" d="M 1044 6171 C 1026 6160 1008 6146 1004 6138 C 999 6131 993 5509 990 4755 L 985 3385 L 915 3380 C 834 3374 806 3361 785 3320 C 766 3283 766 3247 784 3211 C 807 3167 841 3151 915 3148 L 983 3145 L 981 3047 C 980 2993 984 2933 990 2915 C 1006 2866 1047 2840 1109 2840 C 1151 2840 1165 2845 1192 2869 L 1225 2898 L 1228 3024 L 1232 3149 L 2083 3152 C 2886 3155 2937 3156 2962 3173 C 2976 3183 2996 3207 3005 3225 C 3025 3269 3012 3325 2974 3361 L 2948 3385 L 2089 3384 L 1230 3384 L 1230 4472 C 1230 5070 1233 5560 1237 5560 C 1240 5560 1408 5444 1609 5303 C 2286 4827 3297 4123 3842 3746 C 4006 3633 4111 3567 4133 3563 C 4180 3556 4235 3582 4255 3621 C 4282 3672 4270 3738 4229 3772 C 4210 3788 3972 3954 3700 4141 C 3232 4464 2745 4804 2030 5305 C 1857 5426 1606 5602 1473 5695 L 1231 5865 L 1230 5983 C 1230 6068 1226 6109 1215 6130 C 1185 6188 1103 6207 1044 6171 z" stroke-linecap="round" />
</g>
		<g transform="matrix(0.13 0 0 -0.13 -213.5 -301.54)"  >
<path style="stroke: none; stroke-width: 1; stroke-dasharray: none; stroke-linecap: butt; stroke-dashoffset: 0; stroke-linejoin: miter; stroke-miterlimit: 4; fill: rgb(6,95,70); fill-rule: nonzero; opacity: 1;" vector-effect="non-scaling-stroke"  transform=" translate(-2068.33, -5719.39)" d="M 2007 5886 C 1959 5868 1933 5845 1909 5798 C 1855 5693 1929 5556 2045 5542 C 2215 5523 2312 5722 2193 5845 C 2143 5897 2078 5911 2007 5886 z" stroke-linecap="round" />
</g>
		<g transform="matrix(0.13 0 0 -0.13 36.5 -264.99)"  >
<path style="stroke: none; stroke-width: 1; stroke-dasharray: none; stroke-linecap: butt; stroke-dashoffset: 0; stroke-linejoin: miter; stroke-miterlimit: 4; fill: rgb(6,95,70); fill-rule: nonzero; opacity: 1;" vector-effect="non-scaling-stroke"  transform=" translate(-3943.36, -5445.32)" d="M 3862 5603 C 3701 5524 3760 5270 3938 5270 C 4076 5270 4159 5403 4099 5527 C 4059 5609 3947 5645 3862 5603 z" stroke-linecap="round" />
</g>
		<g transform="matrix(0.13 0 0 -0.13 -109.38 -223.02)"  >
<path style="stroke: none; stroke-width: 1; stroke-dasharray: none; stroke-linecap: butt; stroke-dashoffset: 0; stroke-linejoin: miter; stroke-miterlimit: 4; fill: rgb(6,95,70); fill-rule: nonzero; opacity: 1;" vector-effect="non-scaling-stroke"  transform=" translate(-2849.27, -5130.5)" d="M 2775 5299 C 2739 5278 2708 5246 2689 5208 C 2614 5061 2782 4895 2930 4972 C 3053 5035 3062 5198 2947 5284 C 2915 5308 2807 5317 2775 5299 z" stroke-linecap="round" />
</g>
		<g transform="matrix(0.13 0 0 -0.13 -248.98 -156.01)"  >
<path style="stroke: none; stroke-width: 1; stroke-dasharray: none; stroke-linecap: butt; stroke-dashoffset: 0; stroke-linejoin: miter; stroke-miterlimit: 4; fill: rgb(6,95,70); fill-rule: nonzero; opacity: 1;" vector-effect="non-scaling-stroke"  transform=" translate(-1802.25, -4627.94)" d="M 1761 4800 C 1669 4778 1609 4680 1630 4586 C 1648 4507 1703 4459 1785 4452 C 1853 4446 1889 4461 1934 4511 C 2048 4637 1927 4840 1761 4800 z" stroke-linecap="round" />
</g>
		<g transform="matrix(0.13 0 0 -0.13 25.2 -138.36)"  >
<path style="stroke: none; stroke-width: 1; stroke-dasharray: none; stroke-linecap: butt; stroke-dashoffset: 0; stroke-linejoin: miter; stroke-miterlimit: 4; fill: rgb(6,95,70); fill-rule: nonzero; opacity: 1;" vector-effect="non-scaling-stroke"  transform=" translate(-3858.6, -4495.57)" d="M 3763 4645 C 3615 4556 3681 4320 3854 4320 C 4038 4320 4104 4544 3951 4647 C 3903 4680 3820 4679 3763 4645 z" stroke-linecap="round" />
</g>
		<g transform="matrix(0.13 0 0 -0.13 -148.48 -72.28)"  >
<path style="stroke: none; stroke-width: 1; stroke-dasharray: none; stroke-linecap: butt; stroke-dashoffset: 0; stroke-linejoin: miter; stroke-miterlimit: 4; fill: rgb(6,95,70); fill-rule: nonzero; opacity: 1;" vector-effect="non-scaling-stroke"  transform=" translate(-2556.03, -4000.01)" d="M 2484 4161 C 2423 4133 2387 4081 2383 4012 C 2380 3971 2384 3945 2397 3921 C 2485 3753 2730 3811 2730 3999 C 2730 4058 2715 4093 2673 4131 C 2619 4181 2552 4192 2484 4161 z" stroke-linecap="round" />
</g>
		<g transform="matrix(0.13 0 0 -0.13 259.67 133.32)"  >
<path style="stroke: none; stroke-width: 1; stroke-dasharray: none; stroke-linecap: butt; stroke-dashoffset: 0; stroke-linejoin: miter; stroke-miterlimit: 4; fill: rgb(6,95,70); fill-rule: nonzero; opacity: 1;" vector-effect="non-scaling-stroke"  transform=" translate(-5617.17, -2457.95)" d="M 4793 4140 C 4780 4135 4761 4116 4750 4098 C 4730 4065 4730 4048 4730 2893 L 4730 1721 L 4993 1932 C 5137 2048 5275 2152 5300 2163 C 5402 2209 5534 2180 5628 2090 L 5670 2049 L 5670 2480 C 5670 2734 5674 2910 5679 2910 C 5700 2910 5788 2866 5851 2824 C 6041 2698 6160 2476 6160 2245 C 6160 2135 6138 2042 6088 1941 C 6054 1871 6029 1838 5955 1765 C 5882 1691 5849 1666 5780 1633 C 5695 1591 5595 1560 5546 1560 L 5520 1560 L 5520 1711 L 5520 1862 L 5491 1891 C 5468 1913 5452 1920 5422 1920 C 5386 1920 5368 1909 5254 1817 C 5183 1760 5041 1648 4938 1567 C 4835 1486 4742 1408 4731 1394 C 4717 1376 4710 1353 4710 1322 C 4710 1266 4693 1280 5079 994 C 5350 792 5388 767 5423 766 C 5455 765 5467 771 5491 798 C 5520 830 5520 830 5520 965 L 5520 1099 L 5558 1105 C 5666 1122 5722 1133 5785 1152 C 6070 1235 6310 1451 6432 1732 C 6579 2072 6549 2463 6354 2778 C 6291 2879 6145 3029 6044 3096 C 5948 3160 5819 3222 5733 3246 L 5671 3263 L 5668 3672 L 5665 4082 L 5628 4116 L 5590 4150 L 5203 4149 C 4989 4149 4805 4145 4793 4140 z" stroke-linecap="round" />
</g>
		<g transform="matrix(0.13 0 0 -0.13 -33.31 -16.85)"  >
<path style="stroke: none; stroke-width: 1; stroke-dasharray: none; stroke-linecap: butt; stroke-dashoffset: 0; stroke-linejoin: miter; stroke-miterlimit: 4; fill: rgb(6,95,70); fill-rule: nonzero; opacity: 1;" vector-effect="non-scaling-stroke"  transform=" translate(-3419.78, -3584.29)" d="M 3342 3739 C 3184 3659 3236 3410 3411 3410 C 3521 3410 3592 3477 3592 3580 C 3592 3714 3459 3799 3342 3739 z" stroke-linecap="round" />
</g>
		<g transform="matrix(0.13 0 0 -0.13 -101.53 198.28)"  >
<path style="stroke: none; stroke-width: 1; stroke-dasharray: none; stroke-linecap: butt; stroke-dashoffset: 0; stroke-linejoin: miter; stroke-miterlimit: 4; fill: rgb(6,95,70); fill-rule: nonzero; opacity: 1;" vector-effect="non-scaling-stroke"  transform=" translate(-2908.1, -1970.81)" d="M 3545 3198 C 3488 3153 3490 3203 3490 2030 L 3490 950 L 3345 950 L 3200 950 L 3200 1713 C 3200 2298 3197 2481 3187 2499 C 3181 2512 3162 2533 3147 2544 C 3119 2564 3109 2565 2736 2565 C 2383 2565 2352 2564 2326 2547 C 2269 2509 2270 2528 2270 1705 L 2270 950 L 2125 950 L 1981 950 L 1978 1415 L 1975 1880 L 1942 1912 L 1910 1945 L 1540 1948 C 1129 1951 1116 1949 1084 1888 C 1068 1858 1066 1809 1062 1405 L 1059 955 L 945 950 C 822 945 803 937 780 879 C 753 815 799 738 873 725 C 891 722 1836 721 2975 722 L 5044 725 L 4887 838 L 4729 950 L 4580 950 L 4430 950 L 4430 2036 C 4430 3227 4433 3166 4371 3203 C 4345 3218 4302 3220 3957 3220 C 3578 3220 3572 3220 3545 3198 z" stroke-linecap="round" />
</g>
		<g transform="matrix(0.13 0 0 -0.13 300.28 349.72)"  >
<path style="stroke: none; stroke-width: 1; stroke-dasharray: none; stroke-linecap: butt; stroke-dashoffset: 0; stroke-linejoin: miter; stroke-miterlimit: 4; fill: rgb(6,95,70); fill-rule: nonzero; opacity: 1;" vector-effect="non-scaling-stroke"  transform=" translate(-5921.72, -835)" d="M 5785 883 C 5781 847 5772 796 5764 771 C 5756 746 5750 724 5750 723 C 5750 721 5804 720 5870 720 C 6005 720 6047 732 6076 775 C 6098 808 6099 859 6080 895 C 6056 940 6022 950 5902 950 L 5792 950 L 5785 883 z" stroke-linecap="round" />
</g>
</g>
</g>
<g transform="matrix(NaN NaN NaN NaN 0 0)"  >
<g style=""   >
</g>
</g>
</svg>